<svg t="1684460441565" class="icon" viewBox="0 0 1024 1024" version="1.1" xmlns="http://www.w3.org/2000/svg" p-id="2057" width="200" height="200"><path d="M512 955.733333a436.906667 436.906667 0 1 1 436.906667-436.906666 436.906667 436.906667 0 0 1-436.906667 436.906666z m0-819.2a382.293333 382.293333 0 1 0 382.293333 382.293334 382.293333 382.293333 0 0 0-382.293333-382.293334z" fill="#753ca0" p-id="2058"></path><path d="M767.317333 546.133333a27.306667 27.306667 0 0 1-27.306666-27.306666 225.6896 225.6896 0 0 0-23.7568-101.5808A27.306667 27.306667 0 1 1 764.586667 392.8064 279.7568 279.7568 0 0 1 794.624 518.826667a27.306667 27.306667 0 0 1-27.306667 27.306666zM256.682667 546.133333a27.306667 27.306667 0 0 1-27.306667-27.306666 282.760533 282.760533 0 0 1 383.3856-264.328534 27.306667 27.306667 0 1 1-19.524267 51.063467A228.283733 228.283733 0 0 0 283.989333 518.826667a27.306667 27.306667 0 0 1-27.306666 27.306666z" fill="#753ca0" p-id="2059"></path><path d="M512 628.053333a109.226667 109.226667 0 1 1 109.226667-109.226666 109.226667 109.226667 0 0 1-109.226667 109.226666z m0-163.84a54.613333 54.613333 0 1 0 54.613333 54.613334 54.613333 54.613333 0 0 0-54.613333-54.613334z" fill="#753ca0" p-id="2060"></path><path d="M568.1152 485.7856a27.306667 27.306667 0 0 1-19.933867-45.8752l113.595734-121.787733a27.306667 27.306667 0 1 1 39.867733 36.864l-113.595733 121.787733a27.306667 27.306667 0 0 1-19.933867 9.0112z" fill="#753ca0" p-id="2061"></path></svg>