<svg t="1684460461998" class="icon" viewBox="0 0 1162 1024" version="1.1" xmlns="http://www.w3.org/2000/svg" p-id="2212" width="200" height="200"><path d="M342.255579 10.673586c11.503856 11.513081 11.254775 29.981982 0.239856 41.485837L136.376228 257.199279a29.188613 29.188613 0 0 1-41.458162 0L8.634534 170.38991a29.243964 29.243964 0 0 1 0-41.495063 29.207063 29.207063 0 0 1 41.467387 0l65.425298 65.96036L300.788192 10.66436a29.207063 29.207063 0 0 1 41.467387 0zM175.445057 379.987027c72.620973 0 131.579387 59.225946 131.819243 131.893045 0 72.667099-59.19827 131.893045-131.828469 131.893045-72.602523 0-131.810018-59.225946-131.810018-131.893045 0-72.667099 59.19827-131.893045 131.819244-131.893045z m0 205.039856c40.258883 0 73.100685-32.860252 73.100684-73.146811 0-40.286559-32.841802-73.146811-73.100684-73.146811-40.268108 0-73.100685 32.860252-73.100685 73.146811 0 40.286559 32.841802 73.146811 73.100685 73.146811z m0 173.139027c72.620973 0 131.579387 58.995315 131.819243 131.90227 0 72.657874-59.19827 131.893045-131.828469 131.893045-72.602523 0-131.810018-59.225946-131.810018-131.893045 0-72.667099 59.19827-131.90227 131.819244-131.90227z m0 204.8c40.258883 0 72.860829-32.611171 73.100684-73.137586 0-40.295784-32.841802-73.146811-73.100684-73.14681-40.268108 0-73.100685 32.851027-73.100685 73.14681 0 40.286559 32.841802 73.137586 73.100685 73.137586z m957.227819-536.695928a29.465369 29.465369 0 0 1 29.474595 29.493045 29.465369 29.465369 0 0 1-29.474595 29.50227H452.967507a29.465369 29.465369 0 0 1-29.474595-29.50227 29.465369 29.465369 0 0 1 29.474595-29.493045h679.696144z m0 112.464721a29.465369 29.465369 0 0 1 29.474595 29.50227 29.465369 29.465369 0 0 1-29.474595 29.493045H452.967507a29.465369 29.465369 0 0 1-29.474595-29.493045 29.465369 29.465369 0 0 1 29.474595-29.50227h679.696144zM452.967507 862.964468a29.465369 29.465369 0 0 1-29.474595-29.493045 29.465369 29.465369 0 0 1 29.474595-29.50227h679.696144a29.465369 29.465369 0 0 1 29.474595 29.50227 29.465369 29.465369 0 0 1-29.474595 29.493045H452.967507z m679.696144 112.713802H452.967507a29.465369 29.465369 0 0 1-29.474595-29.493045 29.465369 29.465369 0 0 1 29.474595-29.50227h679.696144a29.465369 29.465369 0 0 1 29.474595 29.50227 29.465369 29.465369 0 0 1-29.474595 29.493045zM423.741994 77.574919c0-16.300973 12.933766-29.493045 29.234738-29.493045h679.936A29.465369 29.465369 0 0 1 1162.387327 77.584144a29.465369 29.465369 0 0 1-29.474595 29.50227H453.216588a29.465369 29.465369 0 0 1-29.474594-29.50227z m708.930882 83.211531a29.465369 29.465369 0 0 1 29.474595 29.502271 29.465369 29.465369 0 0 1-29.474595 29.50227H452.967507a29.465369 29.465369 0 0 1-29.474595-29.50227A29.465369 29.465369 0 0 1 452.967507 160.795676h679.696144z" fill="#753ca0" p-id="2213"></path></svg>