<svg t="1684463091910" class="icon" viewBox="0 0 1024 1024" version="1.1" xmlns="http://www.w3.org/2000/svg" p-id="1245" width="200" height="200"><path d="M405.730877 1023.978817A405.625412 405.625412 0 0 1 118.638224 331.711448l223.093977-223.093977a45.06949 45.06949 0 0 1 63.998676 0l127.546657 127.546658a45.06949 45.06949 0 0 1-63.547981 63.547981L373.731539 204.615486 180.383426 395.710124a315.486431 315.486431 0 0 0 446.187953 446.187953l191.094638-191.094639L755.920815 585.903373l-191.094638 191.094638a225.347451 225.347451 0 1 1-318.641296-318.641296l95.54732-94.645929A45.06949 45.06949 0 0 1 405.730877 427.258767l-95.998015 95.998014a135.208471 135.208471 0 0 0 0 191.094639 138.363335 138.363335 0 0 0 191.094639 0l225.347451-223.093977a45.06949 45.06949 0 0 1 63.547981 0l127.546657 127.546657a45.06949 45.06949 0 0 1 0 63.547982l-223.093976 225.347451A405.625412 405.625412 0 0 1 405.730877 1023.978817z m223.093976-819.363331a45.06949 45.06949 0 0 0 0-63.547982L501.278196 13.070152A45.06949 45.06949 0 0 0 437.27952 77.068828l127.546657 127.546658a45.06949 45.06949 0 0 0 63.547981 0zM1011.01413 585.903373a45.06949 45.06949 0 0 0 0-63.547982L883.467473 395.710124a45.06949 45.06949 0 0 0-63.547981 63.547981L946.564759 585.903373a45.06949 45.06949 0 0 0 63.547981 0z" fill="#753ca0" p-id="1246"></path></svg>