<svg t="1684460478263" class="icon" viewBox="0 0 1024 1024" version="1.1" xmlns="http://www.w3.org/2000/svg" p-id="2364" width="200" height="200"><path d="M512 959.730047a80.774557 80.774557 0 0 0 72.492978-45.898611A80.774557 80.774557 0 0 1 512 959.730047z" fill="#753ca0" p-id="2365"></path><path d="M512 959.730047a80.774557 80.774557 0 0 1-72.492978-45.898611A80.774557 80.774557 0 0 0 512 959.730047zM512 1023.999767a145.80245 145.80245 0 0 0 140.378599-110.226652A145.80245 145.80245 0 0 1 512 1023.999767z" fill="#753ca0" p-id="2366"></path><path d="M512 1023.999767a142.478154 142.478154 0 0 1-52.488882-9.914567 142.478154 142.478154 0 0 0 52.488882 9.914567zM433.208356 1000.37977a146.793907 146.793907 0 0 1-11.955801-8.748147 146.677265 146.677265 0 0 0 11.955801 8.748147zM459.511118 1014.0852a144.63603 144.63603 0 0 1-20.120738-9.797925 144.63603 144.63603 0 0 0 20.120738 9.797925zM939.609425 850.43653L854.110869 659.027074V401.773231a342.635757 342.635757 0 0 0-266.760163-333.596005C578.427596 29.16049 548.100687 0 512 0S445.572404 29.16049 436.649294 68.177226a342.635757 342.635757 0 0 0-266.760163 333.596005V659.027074L84.390575 850.378209a45.023797 45.023797 0 0 0 40.824686 63.394906h773.336194a45.023797 45.023797 0 0 0 40.824686-63.394906zM512 45.898611a29.16049 29.16049 0 0 1 23.328392 14.638566c-7.698369-0.524889-15.45506-0.874815-23.328392-0.874814s-15.571702 0.349926-23.328392 0.874814a29.16049 29.16049 0 0 1 23.328392-14.638566z m112.442849 803.604784H155.192244l75.409028-168.780917a40.824686 40.824686 0 0 0 3.557579-16.796442V401.773231a277.841149 277.841149 0 0 1 555.623977 0v262.094484a40.824686 40.824686 0 0 0 3.6159 16.854763l75.409028 168.780917z" fill="#753ca0" p-id="2367"></path><path d="M512 959.730047a80.774557 80.774557 0 0 1-72.492978-45.898611H371.621401a145.044277 145.044277 0 0 0 33.534564 62.578411 147.085512 147.085512 0 0 0 28.052391 23.969923q3.091012 2.041234 6.298666 3.907505a144.63603 144.63603 0 0 0 20.004096 9.797925 142.478154 142.478154 0 0 0 52.488882 9.914567 145.80245 145.80245 0 0 0 140.378599-110.226652H584.492978A80.774557 80.774557 0 0 1 512 959.730047z" fill="#753ca0" p-id="2368"></path></svg>