<svg t="1684473147823" class="icon" viewBox="0 0 1385 1024" version="1.1" xmlns="http://www.w3.org/2000/svg" p-id="1430" width="200" height="200"><path d="M964.536885 511.834407l-260.915116 205.366028c-3.73338-0.301079-7.436653-0.632266-11.139925-0.632266-54.706066 0-98.93458 45.764018-98.93458 102.366881s44.228514 102.366881 98.93458 102.366882 98.93458-45.764018 98.93458-102.366882c0-3.823704-0.301079-7.677516-0.602158-11.531328l198.44121-269.977595-24.718591-25.59172z" fill="#753ca0" p-id="1431"></path><path d="M692.481844 0C310.081327 0 0 320.859957 0 716.568169c0 110.044397 24.086325 214.006998 66.779336 307.100644h111.610009a626.364882 626.364882 0 0 1-78.852607-281.508924h98.302314v-51.18344H99.536738c3.703272-92.130193 26.916468-180.737761 67.411602-260.403281l84.99462 50.882361 24.748699-44.469377-85.024728-50.551175a614.351827 614.351827 0 0 1 80.990268-104.293787 617.392726 617.392726 0 0 1 102.336774-84.753757l48.835024 87.312929 42.963982-25.591721-48.835024-87.312928A573.676046 573.676046 0 0 1 667.793361 102.969039V204.733763h49.437182V102.999147a578.0718 578.0718 0 0 1 249.805298 68.796566l-48.533945 87.312928 42.963983 25.591721 48.835024-87.312929a617.392726 617.392726 0 0 1 102.336773 84.753757 617.452942 617.452942 0 0 1 80.990268 104.293787l-84.69354 50.551175 24.718591 44.469377 85.024727-50.882361a629.736967 629.736967 0 0 1 67.381494 260.403281H1187.154744v51.18344h98.302314A626.364882 626.364882 0 0 1 1206.574344 1023.668813h111.610008A735.204963 735.204963 0 0 0 1384.963688 716.568169C1384.963688 320.859957 1074.882362 0 692.481844 0z" fill="#753ca0" p-id="1432"></path></svg>