<svg t="1684460540655" class="icon" viewBox="0 0 1024 1024" version="1.1" xmlns="http://www.w3.org/2000/svg" p-id="2826" width="200" height="200"><path d="M1024 512c0 282.8-229.2 512-512 512S0 794.8 0 512 229.2 0 512 0s512 229.2 512 512" fill="#753ca0" p-id="2827"></path><path d="M697.84 485.04L603.6 390.72l182.4-182.32 94.32 94.32-182.48 182.32z m-26.4-94.32l26.4 26.4 114.48-114.48-26.4-26.4-114.48 114.48zM318.56 864.32L224.24 770.08l182.4-182.4 94.32 94.32-182.4 182.32z m-26.48-94.24l26.4 26.4 114.48-114.48-26.4-26.4-114.48 114.48zM685.92 778.88c-29.12 0-56.4-11.36-76.96-31.92L381.92 520.08a28.824 28.824 0 0 1 0-40.8l113.12-113.12a28.824 28.824 0 0 1 40.8 0l226.96 226.96c20.56 20.56 31.92 47.92 31.92 76.96 0 29.12-11.36 56.4-31.92 76.96a107.816 107.816 0 0 1-76.88 31.84zM429.44 499.6l213.44 213.44a60.456 60.456 0 0 0 43.04 17.84c16.24 0 31.52-6.32 43.04-17.84a60.456 60.456 0 0 0 17.84-43.04c0-16.24-6.32-31.52-17.84-43.04L515.52 413.52 429.44 499.6z" fill="#FFFFFF" p-id="2828"></path><path d="M373.568 391.472l33.968-33.92 64.944 65.056-33.976 33.92zM186.24 366.24c-6.64-69.12 46.88-149.28 121.76-182.48 25.04-11.12 50.56-15.84 73.76-13.76l-4.32 47.76c-15.04-1.36-32.32 2-49.92 9.84-55.28 24.48-98 85.84-93.44 134l-47.84 4.64z" fill="#FFFFFF" p-id="2829"></path><path d="M275.36 370.48c-3.76-39.36 26.08-84.8 67.92-103.36 14.4-6.4 29.2-9.12 42.8-7.84l-4.32 47.76c-3.84-0.32-10.24 0.08-19.04 3.92-25.36 11.28-41.28 37.92-39.6 54.88l-47.76 4.64z" fill="#FFFFFF" p-id="2830"></path></svg>